# xmcd CD database file
#
# Track frame offsets:
#	150
#	20630
#	39767
#	53992
#	70790
#	94385
#	115240
#	135397
#	157570
#	186657
#	204612
#
# Disc length: 3037 seconds
#
# Revision: 1
# Processed by: cddbd v1.5.2PL0 Copyright (c) Steve Scherf et al.
# Submitted via: CDex 1.51
#
DISCID=920bdb0b
DTITLE=John Lee Hooker - I Feel Good
DYEAR=1970
DGENRE=Blues
TTITLE0=Baby Baby
TTITLE1=I Feel Good
TTITLE2=Going Home
TTITLE3=We Are Cooking
TTITLE4=Roll And Tumble
TTITLE5=Looking Back Over My Day
TTITLE6=Dazie Mae
TTITLE7=Call In The Night
TTITLE8=Stand Back
TTITLE9=Bottle Of Wine
TTITLE10=Baby Don't Do Me Wrong
EXTD=YEAR: 1970
EXTT0=
EXTT1=
EXTT2=
EXTT3=
EXTT4=
EXTT5=
EXTT6=
EXTT7=
EXTT8=
EXTT9=
EXTT10=
PLAYORDER=
